<?xml version="1.0" standalone="no"?>
<!DOCTYPE svg PUBLIC "-//W3C//DTD SVG 20010904//EN"
 "http://www.w3.org/TR/2001/REC-SVG-20010904/DTD/svg10.dtd">
<svg version="1.0" xmlns="http://www.w3.org/2000/svg"
 width="200.000000pt" height="200.000000pt" viewBox="0 0 200.000000 200.000000"
 preserveAspectRatio="xMidYMid meet">

<g transform="translate(0.000000,200.000000) scale(0.100000,-0.100000)"
fill="#000000" stroke="none">
<path d="M616 1384 c-14 -13 -16 -62 -16 -384 0 -322 2 -371 16 -384 13 -14
62 -16 384 -16 322 0 371 2 384 16 14 13 16 62 16 384 0 322 -2 371 -16 384
-13 14 -62 16 -384 16 -322 0 -371 -2 -384 -16z m265 -143 c58 -59 24 -151
-56 -151 -43 0 -95 45 -95 82 0 34 22 71 50 85 40 20 69 15 101 -16z m374
-253 l54 -43 0 -127 1 -128 -310 0 -310 0 0 83 1 82 67 52 67 53 68 -68 67
-67 108 108 c59 60 113 105 120 102 7 -2 37 -24 67 -47z"/>
<path d="M1500 390 c0 -14 -7 -20 -23 -20 -29 0 -47 -18 -47 -46 0 -29 19 -43
58 -42 l32 1 0 64 c0 35 -4 63 -10 63 -5 0 -10 -9 -10 -20z m-7 -52 c6 -19 -3
-38 -18 -38 -7 0 -15 6 -18 13 -6 18 3 37 18 37 7 0 15 -6 18 -12z"/>
<path d="M1700 391 c0 -16 -6 -21 -24 -21 -28 0 -41 -28 -32 -65 5 -20 12 -24
46 -23 l41 0 -3 61 c-2 37 -8 62 -15 65 -8 2 -13 -5 -13 -17z m0 -66 c0 -25
-23 -35 -35 -15 -10 16 2 40 20 40 9 0 15 -9 15 -25z"/>
<path d="M280 340 c0 -33 4 -60 10 -60 6 0 10 27 10 60 0 33 -4 60 -10 60 -6
0 -10 -27 -10 -60z"/>
<path d="M1140 340 l0 -60 40 0 c22 0 40 5 40 10 0 6 -13 10 -30 10 -29 0 -30
1 -30 50 0 28 -4 50 -10 50 -6 0 -10 -27 -10 -60z"/>
<path d="M1027 377 c-2 -7 -2 -30 2 -52 5 -31 11 -41 29 -43 12 -2 22 1 22 7
0 6 -7 11 -15 11 -9 0 -15 9 -15 25 0 16 6 25 15 25 8 0 15 5 15 10 0 6 -7 10
-15 10 -8 0 -15 5 -15 10 0 14 -17 12 -23 -3z"/>
<path d="M615 371 c-27 -6 -30 -10 -30 -46 0 -22 -4 -43 -9 -47 -15 -10 13
-38 39 -38 51 0 59 59 8 61 -28 1 -28 1 -3 8 17 5 26 16 31 39 4 18 4 31 0 31
-3 -1 -19 -4 -36 -8z m15 -32 c0 -5 -7 -9 -15 -9 -15 0 -20 12 -9 23 8 8 24
-1 24 -14z m10 -69 c0 -5 -9 -10 -20 -10 -11 0 -20 5 -20 10 0 6 9 10 20 10
11 0 20 -4 20 -10z"/>
<path d="M330 324 c0 -50 17 -60 22 -12 4 46 28 49 28 4 0 -25 4 -36 15 -36
10 0 15 11 15 35 0 24 5 35 15 35 10 0 15 -11 15 -35 0 -19 5 -35 11 -35 6 0
9 17 7 43 l-3 42 -62 1 -63 2 0 -44z"/>
<path d="M485 360 c-7 -11 0 -13 28 -11 25 3 21 -8 -9 -19 -42 -17 -28 -45 25
-47 33 -1 41 1 32 10 -6 6 -11 26 -11 44 0 30 -3 33 -29 33 -17 0 -33 -4 -36
-10z m45 -50 c0 -5 -7 -10 -16 -10 -8 0 -12 5 -9 10 3 6 10 10 16 10 5 0 9 -4
9 -10z"/>
<path d="M679 349 c-17 -34 4 -71 38 -67 14 2 28 9 31 16 3 9 -3 11 -22 6 -16
-4 -26 -2 -26 5 0 6 14 11 30 11 33 0 35 3 20 31 -14 26 -56 25 -71 -2z m48
-5 c-3 -3 -12 -4 -19 -1 -8 3 -5 6 6 6 11 1 17 -2 13 -5z"/>
<path d="M810 325 c0 -33 4 -45 15 -45 10 0 15 11 15 35 0 24 5 35 15 35 10 0
15 -11 15 -35 0 -24 5 -35 15 -35 10 0 15 10 15 29 0 50 -9 61 -51 61 l-39 0
0 -45z"/>
<path d="M927 364 c-4 -4 -7 -22 -7 -40 0 -27 5 -35 25 -40 42 -10 57 1 53 43
-3 34 -6 38 -33 41 -17 2 -34 0 -38 -4z m53 -39 c0 -18 -5 -25 -20 -25 -15 0
-20 7 -20 25 0 18 5 25 20 25 15 0 20 -7 20 -25z"/>
<path d="M1242 358 c-15 -15 -15 -51 0 -66 15 -15 51 -15 66 0 28 28 7 78 -33
78 -12 0 -26 -5 -33 -12z m51 -20 c6 -19 -3 -38 -18 -38 -18 0 -28 17 -21 35
7 18 33 20 39 3z"/>
<path d="M1347 363 c-14 -14 -6 -20 21 -16 l27 3 -25 -12 c-53 -26 -47 -57 10
-56 38 0 39 1 34 32 -3 17 -7 37 -10 44 -4 13 -46 17 -57 5z m43 -53 c0 -5 -7
-10 -15 -10 -8 0 -15 5 -15 10 0 6 7 10 15 10 8 0 15 -4 15 -10z"/>
<path d="M1552 358 c-16 -16 -15 -53 2 -68 17 -13 63 -10 57 5 -2 6 -12 9 -22
7 -9 -2 -20 2 -24 8 -4 6 6 10 25 10 27 0 31 3 28 23 -3 25 -45 36 -66 15z
m45 -14 c-3 -3 -12 -4 -19 -1 -8 3 -5 6 6 6 11 1 17 -2 13 -5z"/>
</g>
</svg>
